<svg xmlns="http://www.w3.org/2000/svg" viewBox="0 0 1200 1200">
    <rect width="1200" height="1200" fill="white" />
    <path
        fill="black"
        d="m544.5 494.06c17.062 11.719 21.375 35.062 9.6562 52.125l-206.26 300c-7.3125 10.594-19.031 16.219-30.938 16.219-7.3125 0-14.719-2.1562-21.188-6.5625-17.062-11.719-21.375-35.062-9.6562-52.125l206.26-300c11.719-17.062 35.062-21.375 52.125-9.6562zm455.26 173.16c8.4375 8.4375 12.375 20.438 10.5 32.344-1.875 11.812-9.2812 22.125-19.969 27.562l-239.16 122.81 10.125 10.125c18.281 18.281 26.719 44.344 22.781 69.844-4.0312 25.5-20.062 47.719-43.031 59.531l-187.5 96.281c-12.656 6.4688-26.25 9.6562-39.75 9.6562-22.406 0-44.531-8.7188-61.312-25.5l-43.969-43.969-90.844 46.688c-10.219 5.25-21.188 7.7812-32.062 7.7812-18.094 0-36-7.0312-49.5-20.531l-97.688-97.688c-21.562-21.562-26.719-54.375-12.75-81.562l345.37-672.66c5.4375-10.688 15.75-18.094 27.562-19.969s23.812 2.0625 32.344 10.5zm-318.66 218.72-202.5 103.97 27 27c3.6562 3.6562 9.0938 4.5 13.688 2.1562l187.5-96.281c1.7812-0.9375 2.9062-2.4375 3.1875-4.4062s-0.28125-3.75-1.6875-5.1562zm229.22-202.03-396-396-320.26 623.63 92.625 92.625zm-12.094-346.4c9.5625 0 19.219-3.6562 26.531-10.969l150-150c14.625-14.625 14.625-38.344 0-53.062-14.625-14.625-38.438-14.625-53.062 0l-150 150c-14.625 14.625-14.625 38.344 0 53.062 7.3125 7.3125 16.969 10.969 26.531 10.969zm184.78 98.531c-7.6875-19.219-29.531-28.594-48.75-20.906l-93.75 37.5c-19.219 7.6875-28.594 29.531-20.906 48.75 5.9062 14.625 19.969 23.625 34.781 23.625 4.6875 0 9.375-0.84375 13.875-2.7188l93.75-37.5c19.406-7.6875 28.688-29.438 21-48.75zm-386.26-157.5c4.5938 1.875 9.2812 2.7188 13.875 2.7188 14.906 0 28.969-8.9062 34.781-23.625l37.5-93.75c7.6875-19.219-1.6875-41.062-20.906-48.75s-41.062 1.6875-48.75 20.906l-37.5 93.75c-7.5 19.312 1.7812 41.062 21 48.75z"
    />
</svg>
