<?xml version="1.0" encoding="UTF-8"?>
<svg width="1200pt" height="1200pt" version="1.1" viewBox="0 0 1200 1200" xmlns="http://www.w3.org/2000/svg">
 <path d="m1163.4 446.53c0-6.1406-6.9375-11.531-12.844-13.453-11.859-3.7031-29.156-7.7812-32.766-8.5312-86.062-15.938-148.55-22.781-240.37-21.234-122.29 2.1562-223.92 33.609-277.45 33.609s-155.16-31.453-277.45-33.609c-91.781-1.5469-154.31 5.2969-240.37 21.234-3.7031 0.70312-23.859 4.7812-35.766 8.5312-5.8594 1.9219-9.8438 7.3125-9.8438 13.453-0.14062 13.688-0.46875 24.703-0.60938 36.469 0 4.7812 1.5469 9.375 4.3125 13.219 3.9375 5.2969 11.156 13.547 12 20.625 3.9375 34.078 9.4688 61.922 12.234 79.312 8.0625 49.781 29.859 133.31 68.297 162.94 48.234 37.219 149.06 43.688 213.24 33.609 106.22-16.547 146.76-64.078 182.76-156.24 8.0625-20.625 24.609-81.469 30.234-98.859 6.7031-20.531 23.766-31.219 40.922-31.219s34.219 10.688 40.922 31.219c5.625 17.391 22.219 78.234 30.234 98.859 36 92.156 76.453 139.69 182.76 156.24 64.078 10.078 165 3.6094 213.24-33.609 38.391-29.625 60.234-113.16 68.297-162.94 2.7656-17.297 8.2969-45.234 12.234-79.312 0.84375-7.0781 8.0625-15.375 12-20.625 2.8594-3.8438 4.4531-8.3906 4.3125-13.219-0.14062-11.766-0.46875-22.781-0.60938-36.469zm-662.86 160.92c-13.688 43.078-41.297 106.08-75.703 126-38.391 22.219-128.63 48.609-217.45 24.938-71.297-18.938-78.938-51.938-89.297-81.141-13.688-38.297-27.703-109.08-27.703-161.16 0-15.375 2.1562-50.859 37.688-64.219 35.391-13.312 108.94-20.062 188.53-19.453 79.547 0.70312 157.69 18.141 181.22 42.141 29.391 30.141 15.609 92.766 2.8594 132.71zm581.53 69.938c-10.312 29.156-18 62.062-89.297 81.141-88.781 23.625-179.06-2.7656-217.45-24.938-34.453-19.922-62.062-82.922-75.703-126-12.703-39.938-26.531-102.61 2.8594-132.71 23.391-24 101.62-41.391 181.22-42.141 79.547-0.70312 153.14 6 188.53 19.453 35.391 13.312 37.688 48.844 37.688 64.219 0 52.078-14.062 122.86-27.703 161.16z"/>
</svg>
